<svg width="16" height="16" viewBox="0 0 16 16" fill="none" xmlns="http://www.w3.org/2000/svg">
  <path fill-rule="evenodd" clip-rule="evenodd" d="M8 0C3.58 0 0 3.58 0 8C0 11.54 2.29 14.63 5.47 15.69C5.87 15.77 6.02 15.52 6.02 15.31C6.02 15.13 6.01 14.48 6.01 13.74C4 14.09 3.48 12.92 3.48 12.92C3.14 12.11 2.67 11.9 2.67 11.9C2.02 11.47 2.72 11.48 2.72 11.48C3.44 11.53 3.81 12.22 3.81 12.22C4.45 13.35 5.55 13 6 12.8C6.08 12.33 6.27 12.02 6.48 11.82C4.73 11.63 2.89 10.92 2.89 7.82C2.89 6.93 3.22 6.22 3.74 5.68C3.66 5.48 3.38 4.63 3.81 3.48C3.81 3.48 4.46 3.27 6.01 4.36C6.62 4.18 7.31 4.08 8 4.08C8.69 4.08 9.38 4.18 9.99 4.36C11.54 3.27 12.19 3.48 12.19 3.48C12.62 4.63 12.34 5.48 12.26 5.68C12.78 6.22 13.11 6.93 13.11 7.82C13.11 10.93 11.27 11.63 9.52 11.82C9.79 12.06 10.03 12.5 10.03 13.15C10.03 14.06 10.02 14.88 10.02 15.31C10.02 15.52 10.17 15.78 10.57 15.69C13.75 14.63 16 11.54 16 8C16 3.58 12.42 0 8 0Z" fill="white"/>
</svg>